<svg width="1024" height="1024" viewBox="0 0 1024 1024" fill="none" xmlns="http://www.w3.org/2000/svg">
  <style>
    @media (prefers-color-scheme: dark) {
      .light-mode {
        display: none;
      }
    }

    @media (prefers-color-scheme: light) {
      .dark-mode {
        display: none;
      }
    }
  </style>

  <g class="light-mode" clip-path="url(#clip0_354_34)">
    <path
      d="M840.624 138.177H891.503C916.235 138.177 940.262 137.824 963.581 137.118C986.901 136.412 1007.04 135.706 1024 135L1018.7 156.178C994.674 156.884 975.948 159.708 962.521 164.649C949.095 168.885 938.495 177.356 930.722 190.063C923.655 202.064 916.589 221.124 909.522 247.244L769.605 772.461C763.245 797.875 760.419 816.936 761.125 829.642C762.538 842.349 768.898 850.821 780.205 855.056C791.511 859.292 808.824 862.116 832.144 863.527L827.904 884.706C811.651 883.294 791.865 882.588 768.545 882.588C745.226 881.882 721.199 881.529 696.466 881.529C668.907 881.529 642.761 881.882 618.028 882.588C593.295 882.588 573.509 883.294 558.669 884.706L562.909 863.527C587.642 862.116 606.368 859.292 619.088 855.056C632.514 850.821 643.114 842.349 650.887 829.642C658.661 816.936 665.727 797.875 672.087 772.461L825.784 201.711L385.892 890H362.573L290.494 193.24L139.977 761.872C133.617 787.286 130.791 807.405 131.497 822.23C132.204 836.349 138.917 846.585 151.637 852.938C164.357 858.586 184.143 862.116 210.996 863.527L205.696 884.706C197.923 884 187.676 883.647 174.957 883.647C162.943 882.941 150.224 882.588 136.797 882.588C123.371 881.882 110.651 881.529 98.6381 881.529C80.9717 881.529 62.9521 881.882 44.5791 882.588C26.2061 882.588 11.0131 883.294 -1 884.706L4.2999 863.527C29.0327 862.116 48.1124 858.586 61.5388 852.938C74.9652 846.585 85.565 836.349 93.3382 822.23C101.818 807.405 109.238 787.286 115.598 761.872L253.395 247.244C260.462 221.124 263.288 202.064 261.875 190.063C260.462 177.356 254.102 168.885 242.795 164.649C232.195 159.708 214.882 156.884 190.856 156.178L196.156 135C207.463 135.706 221.242 136.412 237.495 137.118C254.455 137.824 272.121 138.177 290.494 138.177C306.747 138.177 323.354 137.824 340.313 137.118C357.273 136.412 371.759 135.706 383.773 135L442.071 762.931L840.624 138.177Z"
      fill="black" />
  </g>
  <defs class="light-mode">
    <clipPath id="clip0_354_34">
      <rect width="1024" height="1024" fill="black" />
    </clipPath>
  </defs>

  <g class="dark-mode" clip-path="url(#clip0_354_34)">
    <path
      d="M840.624 138.177H891.503C916.235 138.177 940.262 137.824 963.581 137.118C986.901 136.412 1007.04 135.706 1024 135L1018.7 156.178C994.674 156.884 975.948 159.708 962.521 164.649C949.095 168.885 938.495 177.356 930.722 190.063C923.655 202.064 916.589 221.124 909.522 247.244L769.605 772.461C763.245 797.875 760.419 816.936 761.125 829.642C762.538 842.349 768.898 850.821 780.205 855.056C791.511 859.292 808.824 862.116 832.144 863.527L827.904 884.706C811.651 883.294 791.865 882.588 768.545 882.588C745.226 881.882 721.199 881.529 696.466 881.529C668.907 881.529 642.761 881.882 618.028 882.588C593.295 882.588 573.509 883.294 558.669 884.706L562.909 863.527C587.642 862.116 606.368 859.292 619.088 855.056C632.514 850.821 643.114 842.349 650.887 829.642C658.661 816.936 665.727 797.875 672.087 772.461L825.784 201.711L385.892 890H362.573L290.494 193.24L139.977 761.872C133.617 787.286 130.791 807.405 131.497 822.23C132.204 836.349 138.917 846.585 151.637 852.938C164.357 858.586 184.143 862.116 210.996 863.527L205.696 884.706C197.923 884 187.676 883.647 174.957 883.647C162.943 882.941 150.224 882.588 136.797 882.588C123.371 881.882 110.651 881.529 98.6381 881.529C80.9717 881.529 62.9521 881.882 44.5791 882.588C26.2061 882.588 11.0131 883.294 -1 884.706L4.2999 863.527C29.0327 862.116 48.1124 858.586 61.5388 852.938C74.9652 846.585 85.565 836.349 93.3382 822.23C101.818 807.405 109.238 787.286 115.598 761.872L253.395 247.244C260.462 221.124 263.288 202.064 261.875 190.063C260.462 177.356 254.102 168.885 242.795 164.649C232.195 159.708 214.882 156.884 190.856 156.178L196.156 135C207.463 135.706 221.242 136.412 237.495 137.118C254.455 137.824 272.121 138.177 290.494 138.177C306.747 138.177 323.354 137.824 340.313 137.118C357.273 136.412 371.759 135.706 383.773 135L442.071 762.931L840.624 138.177Z"
      fill="white" />
  </g>
  <defs class="dark-mode">
    <clipPath id="clip0_354_34">
      <rect width="1024" height="1024" fill="white" />
    </clipPath>
  </defs>
</svg>